<mxfile host="app.diagrams.net" agent="Mozilla/5.0 (Windows NT 10.0; Win64; x64) AppleWebKit/537.36 (KHTML, like Gecko) Chrome/138.0.0.0 Safari/537.36" version="24.8.0">
  <diagram id="C5RBs43oDa-KdzZeNtuy" name="Page-1">
    <mxGraphModel dx="3418" dy="1609" grid="1" gridSize="10" guides="1" tooltips="1" connect="1" arrows="1" fold="1" page="1" pageScale="1" pageWidth="827" pageHeight="1169" math="0" shadow="0">
      <root>
        <mxCell id="WIyWlLk6GJQsqaUBKTNV-0" />
        <mxCell id="WIyWlLk6GJQsqaUBKTNV-1" parent="WIyWlLk6GJQsqaUBKTNV-0" />
        <mxCell id="4X9sFEf8JQ5qdMZp8QuV-20" value="" style="edgeStyle=orthogonalEdgeStyle;rounded=0;orthogonalLoop=1;jettySize=auto;html=1;" edge="1" parent="WIyWlLk6GJQsqaUBKTNV-1" source="WIyWlLk6GJQsqaUBKTNV-3" target="4X9sFEf8JQ5qdMZp8QuV-19">
          <mxGeometry relative="1" as="geometry" />
        </mxCell>
        <mxCell id="WIyWlLk6GJQsqaUBKTNV-3" value="Clente ou dono" style="rounded=1;whiteSpace=wrap;html=1;fontSize=12;glass=0;strokeWidth=1;shadow=0;" parent="WIyWlLk6GJQsqaUBKTNV-1" vertex="1">
          <mxGeometry x="-680" y="190" width="120" height="40" as="geometry" />
        </mxCell>
        <mxCell id="WIyWlLk6GJQsqaUBKTNV-5" value="No" style="edgeStyle=orthogonalEdgeStyle;rounded=0;html=1;jettySize=auto;orthogonalLoop=1;fontSize=11;endArrow=block;endFill=0;endSize=8;strokeWidth=1;shadow=0;labelBackgroundColor=none;" parent="WIyWlLk6GJQsqaUBKTNV-1" source="WIyWlLk6GJQsqaUBKTNV-6" target="WIyWlLk6GJQsqaUBKTNV-7" edge="1">
          <mxGeometry y="10" relative="1" as="geometry">
            <mxPoint as="offset" />
          </mxGeometry>
        </mxCell>
        <mxCell id="4X9sFEf8JQ5qdMZp8QuV-0" style="edgeStyle=orthogonalEdgeStyle;rounded=0;orthogonalLoop=1;jettySize=auto;html=1;exitX=0;exitY=0.5;exitDx=0;exitDy=0;" edge="1" parent="WIyWlLk6GJQsqaUBKTNV-1" source="WIyWlLk6GJQsqaUBKTNV-6">
          <mxGeometry relative="1" as="geometry">
            <mxPoint x="-240" y="550" as="targetPoint" />
          </mxGeometry>
        </mxCell>
        <mxCell id="4X9sFEf8JQ5qdMZp8QuV-5" style="edgeStyle=orthogonalEdgeStyle;rounded=0;orthogonalLoop=1;jettySize=auto;html=1;exitX=0.5;exitY=1;exitDx=0;exitDy=0;" edge="1" parent="WIyWlLk6GJQsqaUBKTNV-1" source="WIyWlLk6GJQsqaUBKTNV-6" target="4X9sFEf8JQ5qdMZp8QuV-3">
          <mxGeometry relative="1" as="geometry" />
        </mxCell>
        <mxCell id="4X9sFEf8JQ5qdMZp8QuV-6" style="edgeStyle=orthogonalEdgeStyle;rounded=0;orthogonalLoop=1;jettySize=auto;html=1;exitX=0.5;exitY=1;exitDx=0;exitDy=0;entryX=0.45;entryY=-0.017;entryDx=0;entryDy=0;entryPerimeter=0;" edge="1" parent="WIyWlLk6GJQsqaUBKTNV-1" source="WIyWlLk6GJQsqaUBKTNV-6" target="4X9sFEf8JQ5qdMZp8QuV-7">
          <mxGeometry relative="1" as="geometry">
            <mxPoint x="-280" y="660" as="targetPoint" />
            <Array as="points">
              <mxPoint x="-130" y="625" />
              <mxPoint x="-279" y="625" />
              <mxPoint x="-279" y="659" />
            </Array>
          </mxGeometry>
        </mxCell>
        <mxCell id="WIyWlLk6GJQsqaUBKTNV-6" value="&lt;font style=&quot;vertical-align: inherit;&quot;&gt;&lt;font style=&quot;vertical-align: inherit;&quot;&gt;É cadastrado?&lt;/font&gt;&lt;/font&gt;" style="rhombus;whiteSpace=wrap;html=1;shadow=0;fontFamily=Helvetica;fontSize=12;align=center;strokeWidth=1;spacing=6;spacingTop=-4;" parent="WIyWlLk6GJQsqaUBKTNV-1" vertex="1">
          <mxGeometry x="-180" y="510" width="100" height="80" as="geometry" />
        </mxCell>
        <mxCell id="WIyWlLk6GJQsqaUBKTNV-7" value="&lt;font style=&quot;vertical-align: inherit;&quot;&gt;&lt;font style=&quot;vertical-align: inherit;&quot;&gt;Faça o cadastro{Nome, email, senha, 2FA(numero)}&lt;/font&gt;&lt;/font&gt;" style="rounded=1;whiteSpace=wrap;html=1;fontSize=12;glass=0;strokeWidth=1;shadow=0;" parent="WIyWlLk6GJQsqaUBKTNV-1" vertex="1">
          <mxGeometry x="-30" y="530" width="260" height="40" as="geometry" />
        </mxCell>
        <mxCell id="4X9sFEf8JQ5qdMZp8QuV-2" value="Com o TokenJWT, entrar normalmente no app." style="rounded=1;whiteSpace=wrap;html=1;fontSize=12;glass=0;strokeWidth=1;shadow=0;" vertex="1" parent="WIyWlLk6GJQsqaUBKTNV-1">
          <mxGeometry x="-500" y="530" width="260" height="40" as="geometry" />
        </mxCell>
        <mxCell id="4X9sFEf8JQ5qdMZp8QuV-13" value="" style="edgeStyle=orthogonalEdgeStyle;rounded=0;orthogonalLoop=1;jettySize=auto;html=1;" edge="1" parent="WIyWlLk6GJQsqaUBKTNV-1" source="4X9sFEf8JQ5qdMZp8QuV-3">
          <mxGeometry relative="1" as="geometry">
            <mxPoint x="-129.99999999999955" y="890.0000000000007" as="targetPoint" />
          </mxGeometry>
        </mxCell>
        <mxCell id="4X9sFEf8JQ5qdMZp8QuV-3" value="Home Page&lt;div&gt;(Lista de usuarios Cadastrados)&lt;/div&gt;" style="rounded=0;whiteSpace=wrap;html=1;" vertex="1" parent="WIyWlLk6GJQsqaUBKTNV-1">
          <mxGeometry x="-190" y="760" width="120" height="60" as="geometry" />
        </mxCell>
        <mxCell id="4X9sFEf8JQ5qdMZp8QuV-7" value="Salvar no Banco de Dados o perfil do cliente" style="rounded=0;whiteSpace=wrap;html=1;" vertex="1" parent="WIyWlLk6GJQsqaUBKTNV-1">
          <mxGeometry x="-330" y="670" width="120" height="60" as="geometry" />
        </mxCell>
        <mxCell id="4X9sFEf8JQ5qdMZp8QuV-10" value="Metodos de gerenciamento de cientes cadastrados&lt;div&gt;&lt;span style=&quot;background-color: initial;&quot;&gt;{&amp;nbsp;&lt;/span&gt;&lt;span style=&quot;background-color: initial;&quot;&gt;editar,&amp;nbsp;&lt;/span&gt;&lt;span style=&quot;background-color: initial;&quot;&gt;remover,&amp;nbsp;&lt;/span&gt;&lt;/div&gt;&lt;div&gt;&lt;span style=&quot;background-color: initial;&quot;&gt;favoritar, adicioar&amp;nbsp;&lt;/span&gt;&lt;span style=&quot;background-color: initial;&quot;&gt;}&amp;nbsp;&lt;/span&gt;&lt;/div&gt;" style="whiteSpace=wrap;html=1;rounded=0;" vertex="1" parent="WIyWlLk6GJQsqaUBKTNV-1">
          <mxGeometry x="-190" y="890" width="120" height="170" as="geometry" />
        </mxCell>
        <mxCell id="4X9sFEf8JQ5qdMZp8QuV-22" value="" style="edgeStyle=orthogonalEdgeStyle;rounded=0;orthogonalLoop=1;jettySize=auto;html=1;" edge="1" parent="WIyWlLk6GJQsqaUBKTNV-1" source="4X9sFEf8JQ5qdMZp8QuV-19" target="4X9sFEf8JQ5qdMZp8QuV-21">
          <mxGeometry relative="1" as="geometry" />
        </mxCell>
        <mxCell id="4X9sFEf8JQ5qdMZp8QuV-25" value="" style="edgeStyle=orthogonalEdgeStyle;rounded=0;orthogonalLoop=1;jettySize=auto;html=1;" edge="1" parent="WIyWlLk6GJQsqaUBKTNV-1" source="4X9sFEf8JQ5qdMZp8QuV-19" target="4X9sFEf8JQ5qdMZp8QuV-24">
          <mxGeometry relative="1" as="geometry" />
        </mxCell>
        <mxCell id="4X9sFEf8JQ5qdMZp8QuV-19" value="É dono" style="rhombus;whiteSpace=wrap;html=1;rounded=1;glass=0;strokeWidth=1;shadow=0;" vertex="1" parent="WIyWlLk6GJQsqaUBKTNV-1">
          <mxGeometry x="-660" y="290" width="80" height="80" as="geometry" />
        </mxCell>
        <mxCell id="4X9sFEf8JQ5qdMZp8QuV-23" style="edgeStyle=orthogonalEdgeStyle;rounded=0;orthogonalLoop=1;jettySize=auto;html=1;entryX=0.5;entryY=0;entryDx=0;entryDy=0;" edge="1" parent="WIyWlLk6GJQsqaUBKTNV-1" source="4X9sFEf8JQ5qdMZp8QuV-21" target="WIyWlLk6GJQsqaUBKTNV-6">
          <mxGeometry relative="1" as="geometry" />
        </mxCell>
        <mxCell id="4X9sFEf8JQ5qdMZp8QuV-21" value="Navigation para a tela de login" style="whiteSpace=wrap;html=1;rounded=1;glass=0;strokeWidth=1;shadow=0;" vertex="1" parent="WIyWlLk6GJQsqaUBKTNV-1">
          <mxGeometry x="-520" y="300" width="120" height="60" as="geometry" />
        </mxCell>
        <mxCell id="4X9sFEf8JQ5qdMZp8QuV-35" style="edgeStyle=orthogonalEdgeStyle;rounded=0;orthogonalLoop=1;jettySize=auto;html=1;entryX=0.5;entryY=0;entryDx=0;entryDy=0;" edge="1" parent="WIyWlLk6GJQsqaUBKTNV-1" source="4X9sFEf8JQ5qdMZp8QuV-24" target="4X9sFEf8JQ5qdMZp8QuV-32">
          <mxGeometry relative="1" as="geometry" />
        </mxCell>
        <mxCell id="4X9sFEf8JQ5qdMZp8QuV-24" value="Navigation para a tela de login" style="rounded=1;whiteSpace=wrap;html=1;glass=0;strokeWidth=1;shadow=0;" vertex="1" parent="WIyWlLk6GJQsqaUBKTNV-1">
          <mxGeometry x="-840" y="300" width="120" height="60" as="geometry" />
        </mxCell>
        <mxCell id="4X9sFEf8JQ5qdMZp8QuV-29" value="No" style="edgeStyle=orthogonalEdgeStyle;rounded=0;html=1;jettySize=auto;orthogonalLoop=1;fontSize=11;endArrow=block;endFill=0;endSize=8;strokeWidth=1;shadow=0;labelBackgroundColor=none;" edge="1" parent="WIyWlLk6GJQsqaUBKTNV-1" source="4X9sFEf8JQ5qdMZp8QuV-32" target="4X9sFEf8JQ5qdMZp8QuV-33">
          <mxGeometry y="10" relative="1" as="geometry">
            <mxPoint as="offset" />
          </mxGeometry>
        </mxCell>
        <mxCell id="4X9sFEf8JQ5qdMZp8QuV-30" style="edgeStyle=orthogonalEdgeStyle;rounded=0;orthogonalLoop=1;jettySize=auto;html=1;exitX=0;exitY=0.5;exitDx=0;exitDy=0;" edge="1" parent="WIyWlLk6GJQsqaUBKTNV-1" source="4X9sFEf8JQ5qdMZp8QuV-32">
          <mxGeometry relative="1" as="geometry">
            <mxPoint x="-1090" y="450" as="targetPoint" />
          </mxGeometry>
        </mxCell>
        <mxCell id="4X9sFEf8JQ5qdMZp8QuV-37" style="edgeStyle=orthogonalEdgeStyle;rounded=0;orthogonalLoop=1;jettySize=auto;html=1;exitX=0.5;exitY=1;exitDx=0;exitDy=0;entryX=0.5;entryY=0;entryDx=0;entryDy=0;" edge="1" parent="WIyWlLk6GJQsqaUBKTNV-1" source="4X9sFEf8JQ5qdMZp8QuV-32" target="4X9sFEf8JQ5qdMZp8QuV-36">
          <mxGeometry relative="1" as="geometry" />
        </mxCell>
        <mxCell id="4X9sFEf8JQ5qdMZp8QuV-41" value="" style="edgeStyle=orthogonalEdgeStyle;rounded=0;orthogonalLoop=1;jettySize=auto;html=1;" edge="1" parent="WIyWlLk6GJQsqaUBKTNV-1" source="4X9sFEf8JQ5qdMZp8QuV-32" target="4X9sFEf8JQ5qdMZp8QuV-40">
          <mxGeometry relative="1" as="geometry" />
        </mxCell>
        <mxCell id="4X9sFEf8JQ5qdMZp8QuV-32" value="&lt;font style=&quot;vertical-align: inherit;&quot;&gt;&lt;font style=&quot;vertical-align: inherit;&quot;&gt;É cadastrado?&lt;/font&gt;&lt;/font&gt;" style="rhombus;whiteSpace=wrap;html=1;shadow=0;fontFamily=Helvetica;fontSize=12;align=center;strokeWidth=1;spacing=6;spacingTop=-4;" vertex="1" parent="WIyWlLk6GJQsqaUBKTNV-1">
          <mxGeometry x="-1030" y="410" width="100" height="80" as="geometry" />
        </mxCell>
        <mxCell id="4X9sFEf8JQ5qdMZp8QuV-33" value="&lt;font style=&quot;vertical-align: inherit;&quot;&gt;&lt;font style=&quot;vertical-align: inherit;&quot;&gt;Faça o cadastro{Nome, email, senha, 2FA(numero)}&lt;/font&gt;&lt;/font&gt;" style="rounded=1;whiteSpace=wrap;html=1;fontSize=12;glass=0;strokeWidth=1;shadow=0;" vertex="1" parent="WIyWlLk6GJQsqaUBKTNV-1">
          <mxGeometry x="-880" y="430" width="260" height="40" as="geometry" />
        </mxCell>
        <mxCell id="4X9sFEf8JQ5qdMZp8QuV-34" value="Com o TokenJWT, entrar normalmente no app." style="rounded=1;whiteSpace=wrap;html=1;fontSize=12;glass=0;strokeWidth=1;shadow=0;" vertex="1" parent="WIyWlLk6GJQsqaUBKTNV-1">
          <mxGeometry x="-1350" y="430" width="260" height="40" as="geometry" />
        </mxCell>
        <mxCell id="4X9sFEf8JQ5qdMZp8QuV-36" value="Salvar no Banco de Dados o perfil do cliente" style="rounded=0;whiteSpace=wrap;html=1;" vertex="1" parent="WIyWlLk6GJQsqaUBKTNV-1">
          <mxGeometry x="-1170" y="540" width="120" height="60" as="geometry" />
        </mxCell>
        <mxCell id="4X9sFEf8JQ5qdMZp8QuV-45" value="" style="edgeStyle=orthogonalEdgeStyle;rounded=0;orthogonalLoop=1;jettySize=auto;html=1;" edge="1" parent="WIyWlLk6GJQsqaUBKTNV-1" source="4X9sFEf8JQ5qdMZp8QuV-40" target="4X9sFEf8JQ5qdMZp8QuV-44">
          <mxGeometry relative="1" as="geometry" />
        </mxCell>
        <mxCell id="4X9sFEf8JQ5qdMZp8QuV-40" value="Lista de comerciante{&lt;div&gt;favoritar comerciantes, nome, descrição, onTap(navigation to details)&lt;span style=&quot;background-color: initial;&quot;&gt;}&lt;/span&gt;&lt;/div&gt;" style="whiteSpace=wrap;html=1;shadow=0;strokeWidth=1;spacing=6;spacingTop=-4;" vertex="1" parent="WIyWlLk6GJQsqaUBKTNV-1">
          <mxGeometry x="-1065" y="700" width="170" height="140" as="geometry" />
        </mxCell>
        <mxCell id="4X9sFEf8JQ5qdMZp8QuV-44" value="Tela de detalhes dos produtos dos comerciantes {&lt;div&gt;nome, descrição,&amp;nbsp;&lt;br&gt;&lt;div&gt;&amp;nbsp;}&lt;/div&gt;&lt;/div&gt;" style="whiteSpace=wrap;html=1;shadow=0;strokeWidth=1;spacing=6;spacingTop=-4;" vertex="1" parent="WIyWlLk6GJQsqaUBKTNV-1">
          <mxGeometry x="-930" y="970" width="180" height="130" as="geometry" />
        </mxCell>
      </root>
    </mxGraphModel>
  </diagram>
</mxfile>
